# xmcd CD database file
#
# Track frame offsets:
#	150
#	32627
#	77015
#	97350
#	132415
#
# Disc length: 2221 seconds
#
# Revision: 0
# Processed by: cddbd v1.5.1PL0 Copyright (c) Steve Scherf et al.
# Submitted via: CDex 1.51
#
DISCID=3e08ab05
DTITLE=Donald Byrd - Byrd's Word
DYEAR=1955
DGENRE=Jazz
TTITLE0=Winterset
TTITLE1=Gotcha Goin' N Comin'
TTITLE2=Long Green
TTITLE3=Stareyes
TTITLE4=Someone To Watch Over Me
EXTD=YEAR: 1955
EXTT0=
EXTT1=
EXTT2=
EXTT3=
EXTT4=
PLAYORDER=
